<svg width="4" height="7" viewBox="0 0 4 7" fill="none" xmlns="http://www.w3.org/2000/svg">
<path d="M0.845418 3.5L3.74795 6.40183C3.81366 6.46754 3.85058 6.55667 3.85058 6.6496C3.85058 6.74253 3.81366 6.83165 3.74795 6.89737C3.68224 6.96308 3.59311 7 3.50018 7C3.40725 7 3.31812 6.96308 3.25241 6.89737L0.102813 3.74777C0.0702224 3.71526 0.0443658 3.67664 0.0267235 3.63412C0.00908125 3.59161 0 3.54603 0 3.5C0 3.45397 0.00908125 3.40839 0.0267235 3.36587C0.0443658 3.32336 0.0702224 3.28474 0.102813 3.25223L3.25241 0.102629C3.31812 0.0369167 3.40725 0 3.50018 0C3.59311 0 3.68224 0.0369167 3.74795 0.102629C3.81366 0.168341 3.85058 0.257466 3.85058 0.350398C3.85058 0.443329 3.81366 0.532454 3.74795 0.598166L0.845418 3.5Z" fill="white"/>
</svg>
