<svg width="7" height="7" viewBox="0 0 7 7" fill="none" xmlns="http://www.w3.org/2000/svg">
<path d="M3.50002 1.26668C3.59285 1.26668 3.68187 1.30004 3.74751 1.35943C3.81315 1.41881 3.85002 1.49936 3.85002 1.58334V3.48334C3.85002 3.56733 3.81315 3.64788 3.74751 3.70726C3.68187 3.76665 3.59285 3.80001 3.50002 3.80001C3.4072 3.80001 3.31817 3.76665 3.25254 3.70726C3.1869 3.64788 3.15002 3.56733 3.15002 3.48334V1.58334C3.15002 1.49936 3.1869 1.41881 3.25254 1.35943C3.31817 1.30004 3.4072 1.26668 3.50002 1.26668ZM3.50002 4.43334C3.4072 4.43334 3.31817 4.46671 3.25254 4.52609C3.1869 4.58548 3.15002 4.66603 3.15002 4.75001C3.15002 4.834 3.1869 4.91454 3.25254 4.97393C3.31817 5.03331 3.4072 5.06668 3.50002 5.06668C3.59285 5.06668 3.68187 5.03331 3.74751 4.97393C3.81315 4.91454 3.85002 4.834 3.85002 4.75001C3.85002 4.66603 3.81315 4.58548 3.74751 4.52609C3.68187 4.46671 3.59285 4.43334 3.50002 4.43334Z" fill="#CA0707"/>
<path fill-rule="evenodd" clip-rule="evenodd" d="M3.5 0C1.56695 0 0 1.41772 0 3.16667C0 4.91562 1.56695 6.33333 3.5 6.33333C5.43305 6.33333 7 4.91562 7 3.16667C7 1.41772 5.43305 0 3.5 0ZM0.7 3.16667C0.7 3.83855 0.994999 4.48291 1.5201 4.958C2.0452 5.4331 2.75739 5.7 3.5 5.7C4.24261 5.7 4.9548 5.4331 5.4799 4.958C6.005 4.48291 6.3 3.83855 6.3 3.16667C6.3 2.49478 6.005 1.85042 5.4799 1.37533C4.9548 0.900237 4.24261 0.633333 3.5 0.633333C2.75739 0.633333 2.0452 0.900237 1.5201 1.37533C0.994999 1.85042 0.7 2.49478 0.7 3.16667Z" fill="#CA0707"/>
</svg>
