<svg width="9" height="7" viewBox="0 0 9 7" fill="none" xmlns="http://www.w3.org/2000/svg">
<path d="M0.285598 0.514419C0.131814 0.514419 0 0.397209 0 0.253953C0 0.117209 0.131814 0 0.285598 0H1.03255C1.03987 0 1.05452 0 1.06184 0C1.32547 0.00651163 1.5598 0.052093 1.75753 0.162791C1.97722 0.286512 2.13832 0.475349 2.2262 0.755349C2.2262 0.76186 2.2262 0.768372 2.23352 0.774884L2.30675 1.03535H8.7144C8.87551 1.03535 9 1.15256 9 1.2893C9 1.31535 8.99268 1.3414 8.98535 1.36744L8.23841 4.04372C8.20911 4.16093 8.09194 4.23907 7.96013 4.23907H3.27339C3.37592 4.57767 3.47844 4.76 3.61758 4.84465C3.786 4.94233 4.07893 4.94884 4.56957 4.94233H4.57689H7.8869C8.04801 4.94233 8.1725 5.05954 8.1725 5.19628C8.1725 5.33954 8.04068 5.45023 7.8869 5.45023H4.57689C3.96908 5.45674 3.59561 5.44372 3.29536 5.26791C2.98779 5.08558 2.82669 4.77302 2.66558 4.20651L1.6843 0.905116C1.6843 0.898605 1.6843 0.898605 1.67697 0.892093C1.63303 0.748837 1.5598 0.651163 1.45728 0.59907C1.35476 0.540465 1.21562 0.514419 1.05452 0.514419C1.04719 0.514419 1.03987 0.514419 1.03255 0.514419H0.285598ZM7.03011 5.74977C7.41823 5.74977 7.73312 6.02977 7.73312 6.37488C7.73312 6.72 7.41823 7 7.03011 7C6.64198 7 6.3271 6.72 6.3271 6.37488C6.3271 6.02977 6.64198 5.74977 7.03011 5.74977ZM3.94711 5.74977C4.33523 5.74977 4.65012 6.02977 4.65012 6.37488C4.65012 6.72 4.33523 7 3.94711 7C3.55899 7 3.2441 6.72 3.2441 6.37488C3.2441 6.02977 3.55899 5.74977 3.94711 5.74977ZM2.46786 1.54326L3.11961 3.72465H7.74044L8.34825 1.54326H2.46786Z" fill="white"/>
</svg>
