<svg width="8" height="7" viewBox="0 0 8 7" fill="none" xmlns="http://www.w3.org/2000/svg">
<g clip-path="url(#clip0_2_120)">
<path d="M3.80938 0.0032835C3.21438 0.0339084 2.70625 0.151487 2.2 0.374612C1.0975 0.861331 0.313754 1.76422 0.0756287 2.82188C0.0225037 3.05703 0.00375366 3.23586 0.00375366 3.5C0.00375366 3.71985 0.0106287 3.81172 0.0412537 3.99766C0.180629 4.85188 0.673754 5.62571 1.43375 6.18352C2.0275 6.61938 2.75688 6.89555 3.525 6.97485C3.70063 6.99289 3.785 6.99727 4 6.99727C4.22438 6.99727 4.30313 6.99344 4.49688 6.97211C5.82125 6.82938 6.98125 6.11024 7.58 5.06133C7.77125 4.7261 7.8975 4.37172 7.95875 3.99766C7.98938 3.81227 7.99625 3.71985 7.99625 3.50274C7.99625 3.28508 7.98875 3.18391 7.95875 3.00235C7.70813 1.46672 6.3225 0.254299 4.56875 0.0355492C4.3825 0.0125804 4.26375 0.0049243 4.05 0.0032835C3.93813 0.00218964 3.83 0.00218964 3.80938 0.0032835ZM4.26125 0.392112C4.4625 0.577502 4.5525 0.666096 4.67313 0.796252C4.94 1.0861 5.17438 1.40219 5.345 1.70625C5.39625 1.79703 5.475 1.94852 5.47188 1.95125C5.46625 1.95617 5.31 1.99555 5.19375 2.02071C5.01063 2.06117 4.87313 2.08469 4.66875 2.11094C4.575 2.12297 4.445 2.13391 4.24563 2.14649L4.19375 2.14922V1.24688C4.19375 0.533752 4.19563 0.344533 4.20125 0.344533C4.20563 0.344533 4.2325 0.365862 4.26125 0.392112ZM3.80625 1.25781V2.14977L3.76125 2.14649C3.73625 2.14485 3.675 2.14102 3.625 2.13828C3.4375 2.12625 3.235 2.10164 3.03438 2.06664C2.86938 2.03766 2.56875 1.96875 2.56875 1.96C2.56875 1.95836 2.59 1.91516 2.61625 1.86321C2.83875 1.42461 3.1475 1.00571 3.53688 0.614143C3.6275 0.523362 3.79438 0.366408 3.80125 0.366408C3.80375 0.366408 3.80625 0.767815 3.80625 1.25781ZM3.20875 0.42219C3.20563 0.426018 3.1825 0.451174 3.15625 0.478518C2.785 0.862424 2.46 1.31688 2.24688 1.75055C2.22188 1.80196 2.19938 1.84516 2.1975 1.8468C2.18875 1.85446 1.83188 1.71063 1.68 1.63789C1.50563 1.55422 1.28125 1.43282 1.28125 1.42188C1.28125 1.41094 1.59125 1.14406 1.67188 1.0861C2.07188 0.796252 2.4875 0.599377 2.965 0.473049C3.00813 0.462111 3.20125 0.416721 3.21125 0.415627C3.2125 0.415627 3.21125 0.418909 3.20875 0.42219ZM4.9125 0.443518C5.47938 0.575315 5.97438 0.80883 6.40875 1.14789C6.49188 1.21352 6.70125 1.39836 6.71313 1.41696C6.71813 1.42571 6.71 1.43227 6.6475 1.46781C6.49375 1.55532 6.29813 1.65157 6.12813 1.72321C6.01375 1.77133 5.85813 1.83203 5.8475 1.83203C5.84375 1.83203 5.8225 1.79594 5.8 1.7511C5.59438 1.33985 5.3 0.925862 4.94125 0.54469C4.89625 0.497112 4.85313 0.450627 4.845 0.442424C4.83688 0.433674 4.8325 0.426565 4.83563 0.426565C4.83813 0.426565 4.87313 0.434221 4.9125 0.443518ZM1.29188 1.83696C1.5 1.94633 1.70438 2.03711 1.93188 2.12188C1.99875 2.14703 2.05563 2.16891 2.05813 2.1711C2.06063 2.17328 2.05625 2.19407 2.0475 2.21813C1.98313 2.39969 1.92188 2.62336 1.88813 2.80547C1.86125 2.94766 1.83125 3.19102 1.83125 3.26375C1.83125 3.2818 1.82938 3.30422 1.8275 3.31352L1.82313 3.33047L1.11 3.32938L0.396879 3.32774L0.398754 3.29492C0.413129 3.03133 0.485004 2.72344 0.598129 2.4418C0.694379 2.20282 0.861879 1.91297 1.01 1.72977L1.0375 1.69586L1.11875 1.7418C1.16313 1.7675 1.24125 1.81016 1.29188 1.83696ZM7.01438 1.76258C7.22 2.03656 7.37063 2.32422 7.475 2.6425C7.53313 2.82078 7.58313 3.06469 7.59688 3.2375C7.59875 3.26321 7.60188 3.29438 7.60375 3.30696L7.60688 3.33047H6.91688H6.22688L6.2225 3.26047C6.20188 2.93891 6.12875 2.58289 6.01813 2.2668C6.00063 2.21539 5.98563 2.16946 5.985 2.16399C5.98438 2.15633 6.01 2.14485 6.09938 2.11094C6.3425 2.01852 6.59875 1.8993 6.82563 1.77297C6.88563 1.73961 6.94 1.70899 6.94688 1.70461C6.95375 1.69969 6.96125 1.6975 6.96375 1.6986C6.96688 1.70024 6.98938 1.72867 7.01438 1.76258ZM5.62563 2.31055C5.72813 2.59328 5.79125 2.86563 5.82125 3.15274C5.82625 3.20086 5.83125 3.25992 5.8325 3.28399L5.83438 3.32774L5.01438 3.32938L4.19375 3.33047V2.91047V2.49047L4.3175 2.48391C4.71438 2.46313 5.15938 2.39367 5.51563 2.29742C5.56063 2.28539 5.60063 2.2761 5.60563 2.27664C5.61 2.27719 5.61938 2.2925 5.62563 2.31055ZM2.5325 2.31C2.90188 2.40407 3.29813 2.46367 3.68313 2.48391L3.80625 2.49047V2.91047V3.33047H3.0125H2.21875V3.30641C2.21875 3.26649 2.23688 3.08766 2.25063 2.99688C2.27625 2.82571 2.31875 2.63813 2.36938 2.47406C2.39875 2.37782 2.43063 2.28594 2.43438 2.28594C2.43563 2.28594 2.48 2.29688 2.5325 2.31ZM1.8275 3.68157C1.82938 3.68867 1.83125 3.70891 1.83125 3.72696C1.83125 3.77289 1.8475 3.92875 1.8625 4.03321C1.90125 4.29571 1.975 4.58172 2.06875 4.83055C2.08563 4.87594 2.0975 4.91532 2.095 4.91696C2.0925 4.91914 2.05563 4.93336 2.0125 4.94813C1.75563 5.03782 1.46438 5.16852 1.19813 5.31453C1.14 5.34571 1.09063 5.36977 1.08813 5.36703C1.07438 5.35391 0.990004 5.24563 0.951254 5.19149C0.701254 4.84532 0.533754 4.47125 0.450629 4.07422C0.430004 3.97797 0.409379 3.83907 0.403129 3.7625C0.401254 3.7368 0.398129 3.70563 0.396254 3.6925L0.393129 3.66953H1.10813H1.82375L1.8275 3.68157ZM3.80625 4.1393V4.60907L3.74563 4.61235C3.36938 4.63367 3.12375 4.66375 2.80438 4.72774C2.71625 4.74578 2.48313 4.79992 2.47438 4.80485C2.47 4.80703 2.42188 4.68016 2.38813 4.57735C2.3 4.30719 2.24125 4.01024 2.22125 3.72805L2.21688 3.66953H3.01188H3.80625V4.1393ZM5.83438 3.70891C5.82063 3.86696 5.81625 3.90852 5.8025 4.00313C5.775 4.18797 5.73063 4.37883 5.67438 4.55547C5.64188 4.655 5.58188 4.81797 5.5775 4.81797C5.57625 4.81797 5.54313 4.80977 5.50438 4.79938C5.28313 4.74086 5.00938 4.68782 4.76875 4.65719C4.59375 4.63477 4.48438 4.62547 4.255 4.61235L4.19375 4.60907V4.1393V3.66953H5.01563H5.83813L5.83438 3.70891ZM7.60375 3.68977C7.60188 3.70125 7.59875 3.73242 7.59688 3.75977C7.56313 4.1918 7.39438 4.66977 7.13625 5.06407C7.07188 5.16141 6.94063 5.33914 6.91188 5.36703C6.90938 5.36977 6.86 5.34625 6.80188 5.31453C6.545 5.17399 6.22938 5.03125 6.005 4.95414C5.97438 4.94375 5.95 4.93282 5.95 4.92899C5.95 4.92516 5.95563 4.90985 5.9625 4.89399C5.98438 4.84532 6.05625 4.63313 6.085 4.53086C6.1575 4.27438 6.2025 4.02227 6.22 3.77453L6.2275 3.66953H6.9175H7.6075L7.60375 3.68977ZM3.80625 5.7925L3.80563 6.63086L3.73625 6.56797C3.29813 6.17039 2.91563 5.69024 2.66875 5.22867C2.64125 5.17617 2.61938 5.13078 2.62063 5.1275C2.62625 5.11602 2.90188 5.05532 3.09375 5.0236C3.31875 4.98641 3.58625 4.95907 3.755 4.95578L3.80625 4.95469V5.7925ZM4.46563 4.96891C4.76625 4.99461 5.09375 5.04875 5.35313 5.11657C5.38438 5.12422 5.41438 5.13242 5.42063 5.13352C5.42625 5.13516 5.43125 5.13899 5.43125 5.14282C5.43125 5.15539 5.26063 5.44852 5.195 5.54805C4.99625 5.85102 4.76938 6.125 4.4825 6.40828C4.35375 6.53571 4.21938 6.65547 4.20563 6.65547C4.19375 6.65547 4.19375 6.63469 4.19375 5.80453V4.95305L4.28313 4.95688C4.33188 4.95907 4.41438 4.96453 4.46563 4.96891ZM2.34688 5.42774C2.55688 5.80672 2.81625 6.15563 3.14375 6.49961C3.18813 6.5461 3.22313 6.58438 3.22125 6.58438C3.21125 6.58438 3.07313 6.55375 3.00125 6.53571C2.4025 6.38367 1.87625 6.10969 1.42875 5.71539L1.34188 5.63938L1.39438 5.6093C1.59875 5.49336 1.93188 5.34407 2.1875 5.25383L2.24063 5.23524L2.25563 5.26313C2.26438 5.27844 2.305 5.35227 2.34688 5.42774ZM5.91688 5.29211C6.11375 5.36539 6.43438 5.5125 6.60563 5.6093L6.65813 5.63938L6.56813 5.71867C6.17063 6.06867 5.70313 6.3268 5.17875 6.48539C5.05563 6.52258 4.84375 6.57617 4.84375 6.56961C4.84375 6.56852 4.87688 6.53242 4.9175 6.48977C5.25313 6.13813 5.54063 5.74657 5.74375 5.36539C5.77625 5.30469 5.80625 5.25547 5.81 5.25547C5.81438 5.25547 5.8625 5.27188 5.91688 5.29211Z" fill="#BEB3B3"/>
</g>
<defs>
<clipPath id="clip0_2_120">
<rect width="8" height="7" fill="white"/>
</clipPath>
</defs>
</svg>
