<svg width="73" height="15" viewBox="0 0 73 15" fill="none" xmlns="http://www.w3.org/2000/svg">
<mask id="mask0_1_44" style="mask-type:luminance" maskUnits="userSpaceOnUse" x="-1" y="-1" width="75" height="16">
<path d="M73.0007 -0.000556958H-0.000885029V14.9998H73.0007V-0.000556958Z" fill="white"/>
</mask>
<g mask="url(#mask0_1_44)">
<path d="M17.935 5.7837H9.26547C9.23592 5.7837 9.20767 5.77403 9.1868 5.75683C9.16592 5.73963 9.15416 5.7163 9.15416 5.69195V0.30859C9.15416 0.0205661 8.71787 -0.109901 8.49447 0.111477L0.0863518 8.4417C0.0409987 8.4867 0.0121058 8.54142 0.00305431 8.59949C-0.00599712 8.65756 0.00516744 8.71656 0.0352412 8.76956C0.0653151 8.82256 0.113054 8.86742 0.172871 8.89878C0.232686 8.93021 0.302106 8.94692 0.373003 8.94699H9.04303C9.07248 8.94699 9.10074 8.95671 9.12161 8.97393C9.14239 8.99121 9.15416 9.0145 9.15416 9.03885V14.4223C9.15416 14.7104 9.59054 14.8409 9.81401 14.6195L18.2221 6.28927C18.2676 6.24427 18.2966 6.18948 18.3057 6.13134C18.3148 6.0732 18.3037 6.01413 18.2735 5.96105C18.2434 5.90796 18.1955 5.86308 18.1356 5.83166C18.0756 5.80026 18.0061 5.78361 17.935 5.7837Z" fill="#CBF200"/>
<path d="M24.7285 14.315V5.22392C24.7285 5.11372 24.7816 5.00804 24.876 4.93011C24.9704 4.8522 25.0983 4.80842 25.2318 4.80842H28.05C28.1835 4.80842 28.3115 4.8522 28.4059 4.93011C28.5002 5.00804 28.5533 5.11372 28.5533 5.22392V14.315C28.5533 14.4253 28.5002 14.5309 28.4059 14.6088C28.3115 14.6868 28.1835 14.7305 28.05 14.7305H25.2318C25.0983 14.7305 24.9704 14.6868 24.876 14.6088C24.7816 14.5309 24.7285 14.4253 24.7285 14.315Z" fill="white"/>
<path d="M24.7285 2.72847V0.430099C24.7285 0.373644 24.742 0.317738 24.7681 0.265574C24.7943 0.21341 24.8326 0.16601 24.881 0.126083C24.9293 0.0861555 24.9867 0.0544824 25.0499 0.0328729C25.113 0.0112636 25.1807 0.000141143 25.2492 0.000141147H28.0346C28.1727 0.000141147 28.3051 0.0454401 28.4027 0.126073C28.5004 0.206706 28.5553 0.316067 28.5553 0.430099V2.72847C28.5552 2.8424 28.5003 2.95164 28.4027 3.03217C28.3051 3.1127 28.1727 3.15793 28.0347 3.15793H25.2493C25.1113 3.15793 24.979 3.1127 24.8813 3.03217C24.7837 2.95165 24.7287 2.84241 24.7285 2.72847Z" fill="white"/>
<path d="M40.9694 14.5448L38.2683 10.7554C38.2647 10.7502 38.2594 10.7458 38.2531 10.7427C38.2469 10.7395 38.2398 10.7377 38.2324 10.7375C38.2251 10.7372 38.2179 10.7384 38.2113 10.741C38.2047 10.7436 38.199 10.7475 38.1947 10.7524L34.8342 14.5758C34.791 14.6238 34.7348 14.6628 34.6702 14.6897C34.6056 14.7167 34.5344 14.7309 34.462 14.7312H32.2678C32.1343 14.7312 32.0063 14.6875 31.912 14.6095C31.8176 14.5316 31.7645 14.4259 31.7645 14.3158V0.41564C31.7645 0.305442 31.8176 0.199759 31.912 0.121838C32.0063 0.0439168 32.1343 0.000141148 32.2678 0.000141148L35.086 0.000141147C35.2195 0.000141148 35.3474 0.0439168 35.4418 0.121838C35.5362 0.199759 35.5893 0.305442 35.5893 0.41564V9.31743C35.5894 9.32514 35.5925 9.33264 35.5982 9.33879C35.6039 9.34493 35.6118 9.34943 35.6207 9.35164C35.6297 9.35386 35.6393 9.35364 35.6481 9.351C35.657 9.34843 35.6645 9.34357 35.6697 9.33722L40.3999 3.32745C40.4416 3.27454 40.4987 3.23104 40.5659 3.2009C40.6331 3.17075 40.7083 3.1549 40.7848 3.15477H44.1932C44.2784 3.15451 44.3619 3.17374 44.4346 3.21033C44.5072 3.24691 44.5662 3.29942 44.605 3.36202C44.6436 3.42462 44.6606 3.49485 44.6538 3.56491C44.6471 3.63498 44.617 3.70213 44.5668 3.75891L40.8615 7.94711C40.8565 7.95276 40.8535 7.95947 40.853 7.96647C40.8526 7.97347 40.8545 7.9804 40.8587 7.98654L45.1103 14.1617C45.1502 14.2192 45.1711 14.2843 45.1709 14.3505C45.1708 14.4168 45.1495 14.4819 45.1092 14.5393C45.069 14.5965 45.0112 14.6442 44.9416 14.6773C44.8721 14.7103 44.7932 14.7278 44.713 14.7278H41.3662C41.2864 14.7287 41.2077 14.7123 41.1381 14.6802C41.0683 14.648 41.0102 14.6013 40.9694 14.5448Z" fill="white"/>
<path d="M51.7025 14.8865C48.0723 14.8865 45.5378 12.4256 45.5378 8.90499C45.5378 5.38436 48.0723 2.92361 51.7025 2.92361C53.2162 2.92361 54.6088 3.45545 55.7255 4.45597L55.8032 4.52544C55.8089 4.53091 55.8164 4.53485 55.8248 4.53678C55.8332 4.53869 55.8421 4.5385 55.8504 4.53621C55.8586 4.53393 55.8659 4.52966 55.8713 4.52395C55.8766 4.51825 55.8798 4.51136 55.8803 4.50417L55.8896 4.39929V4.3968C55.8896 4.14834 55.9189 3.78669 55.9441 3.50415C55.9527 3.40918 56.0044 3.3204 56.089 3.25566C56.1736 3.1909 56.2847 3.155 56.4 3.15513H59.0572C59.1907 3.15513 59.3187 3.1989 59.413 3.27683C59.5074 3.35474 59.5605 3.46043 59.5605 3.57063V14.3118C59.5605 14.422 59.5074 14.5276 59.413 14.6055C59.3187 14.6835 59.1907 14.7273 59.0572 14.7273H56.4037C56.2873 14.728 56.1749 14.6923 56.0893 14.627C56.0038 14.5619 55.9515 14.4723 55.9431 14.3764C55.9179 14.0631 55.8847 13.6605 55.8847 13.4872V13.4847L55.8716 13.3518C55.871 13.3448 55.8679 13.3382 55.8628 13.3326C55.8577 13.3271 55.8507 13.3229 55.8428 13.3204C55.8348 13.3181 55.8262 13.3177 55.818 13.3192C55.8098 13.3208 55.8022 13.3244 55.7964 13.3294L55.7174 13.3958C54.5966 14.3723 53.203 14.8865 51.7025 14.8865ZM55.8774 7.89461C55.7748 7.35267 55.4712 6.83096 54.9489 6.45867C54.3473 6.02412 53.5741 5.78604 52.7748 5.78922C50.7391 5.78922 49.3193 7.08342 49.3193 8.93685C49.3193 10.9387 50.5782 12.0847 52.7748 12.0847C53.2184 12.0857 53.6579 12.0151 54.0686 11.8768C55.0731 11.535 55.7381 10.7757 55.8803 9.93359L55.9206 9.70572C56.0135 9.17443 56.0104 8.63477 55.9115 8.10419L55.8774 7.89461Z" fill="white"/>
<path d="M66.9698 15.0008C64.8077 15.0008 63.4318 14.628 62.658 14.3139C62.3563 14.1936 62.0705 14.0479 61.8051 13.8791C61.7232 13.8238 61.6672 13.7467 61.6465 13.6611C61.6259 13.5754 61.642 13.4866 61.692 13.4096L62.7789 11.7218C62.8101 11.6739 62.8534 11.632 62.9059 11.5991C62.9583 11.5663 63.0189 11.5431 63.0832 11.5313C63.1475 11.5195 63.2142 11.5193 63.2786 11.5308C63.3431 11.5422 63.4037 11.565 63.4565 11.5975C64.8197 12.4191 66.3339 12.5156 66.9694 12.5156C68.245 12.5156 68.9476 12.1291 68.9476 11.4285C68.9476 10.5172 67.8807 10.3033 66.5344 10.0341C66.405 10.0098 66.2752 9.98223 66.1457 9.95466C64.3555 9.58536 61.976 8.84677 61.976 6.68618C61.976 5.59192 62.5614 4.65323 63.6697 3.96981C64.7319 3.31399 66.2041 2.955 67.8183 2.955C70.1562 2.955 71.7914 3.59703 72.515 3.9522C72.6158 4.00166 72.6896 4.08111 72.7216 4.1742C72.7534 4.26729 72.741 4.36693 72.6865 4.45262L71.6787 6.0611C71.5578 6.2509 71.2686 6.32336 71.047 6.21633C69.7172 5.58826 68.5754 5.44667 67.8183 5.44667C67.283 5.44667 66.0285 5.44667 66.0285 6.45799C66.0285 7.22067 66.7981 7.36574 67.7724 7.5521C68.0903 7.61425 68.4542 7.67975 68.8265 7.77647C70.0767 8.0974 73 8.85327 73 11.1244C73 12.2046 72.4146 13.1884 71.3523 13.8926C70.2444 14.6108 68.7306 15.0008 66.9698 15.0008Z" fill="white"/>
</g>
</svg>
