<svg width="5" height="7" viewBox="0 0 5 7" fill="none" xmlns="http://www.w3.org/2000/svg">
<path d="M2.5 7L0.582729 4.51275C0.556089 4.4754 0.529724 4.43782 0.503639 4.4C0.176134 3.92545 -0.000791179 3.34581 2.65974e-06 2.75C2.65974e-06 2.02065 0.263395 1.32118 0.732235 0.805456C1.20108 0.289731 1.83696 0 2.5 0C3.16304 0 3.79892 0.289731 4.26777 0.805456C4.73661 1.32118 5 2.02065 5 2.75C5.00079 3.34554 4.82395 3.92491 4.49659 4.39925L4.49636 4.4C4.49636 4.4 4.42818 4.4985 4.41795 4.51175L2.5 7ZM0.866593 4.09875C0.866593 4.09875 0.919547 4.17575 0.931593 4.19225L2.5 6.227L4.07045 4.1895C4.08045 4.17575 4.13363 4.09825 4.13386 4.098C4.4014 3.71028 4.54598 3.23676 4.54545 2.75C4.54545 2.15326 4.32995 1.58097 3.94635 1.15901C3.56276 0.737053 3.04249 0.5 2.5 0.5C1.95751 0.5 1.43724 0.737053 1.05365 1.15901C0.67005 1.58097 0.454548 2.15326 0.454548 2.75C0.454071 3.23706 0.598815 3.71085 0.866593 4.09875Z" fill="#5E23BE"/>
</svg>
