<svg width="3" height="2" viewBox="0 0 3 2" fill="none" xmlns="http://www.w3.org/2000/svg">
<path d="M1.5 2C1.20333 2 0.913319 1.94135 0.666645 1.83147C0.419972 1.72159 0.227713 1.56541 0.114181 1.38268C0.000649926 1.19996 -0.0290551 0.998891 0.0288227 0.80491C0.0867006 0.610929 0.229562 0.432746 0.439341 0.292894C0.649119 0.153041 0.916394 0.0578004 1.20737 0.0192152C1.49834 -0.01937 1.79994 0.000433284 2.07403 0.0761209C2.34811 0.151809 2.58238 0.279981 2.7472 0.44443C2.91203 0.608879 3 0.802219 3 1C2.99952 1.26512 2.84134 1.51929 2.56013 1.70676C2.27893 1.89422 1.89768 1.99968 1.5 2ZM1.5 0.4C1.322 0.4 1.14799 0.43519 0.999987 0.501119C0.851983 0.567047 0.736628 0.660755 0.668509 0.77039C0.60039 0.880026 0.582567 1.00067 0.617294 1.11705C0.65202 1.23344 0.737737 1.34035 0.863604 1.42426C0.989472 1.50818 1.14984 1.56532 1.32442 1.58847C1.499 1.61162 1.67996 1.59974 1.84442 1.55433C2.00887 1.50892 2.14943 1.43201 2.24832 1.33334C2.34722 1.23467 2.4 1.11867 2.4 1C2.39976 0.840919 2.30486 0.688399 2.13613 0.575912C1.9674 0.463424 1.73862 0.400159 1.5 0.4Z" fill="#5E23BE"/>
</svg>
