<svg width="9" height="7" viewBox="0 0 9 7" fill="none" xmlns="http://www.w3.org/2000/svg">
<g clip-path="url(#clip0_8_139)">
<path d="M3.28052 0.594574H5.7105V4.96521H3.28052V0.594574Z" fill="#FF5F00"/>
<path d="M3.43488 2.77991C3.43488 1.8919 3.85144 1.10424 4.4917 0.594578C4.02117 0.22393 3.42718 0 2.77919 0C1.24399 0 0.00201416 1.24322 0.00201416 2.77991C0.00201416 4.31657 1.24399 5.55983 2.77915 5.55983C3.42715 5.55983 4.02113 5.3359 4.4917 4.96522C3.85144 4.46329 3.43488 3.66793 3.43488 2.77991Z" fill="#EB001B"/>
<path d="M8.98908 2.77991C8.98908 4.31657 7.7471 5.55983 6.21194 5.55983C5.56394 5.55983 4.96996 5.3359 4.49939 4.96522C5.14738 4.45559 5.55625 3.66793 5.55625 2.77991C5.55625 1.8919 5.13965 1.10424 4.49939 0.594578C4.96992 0.22393 5.56394 0 6.21194 0C7.7471 0 8.98908 1.25096 8.98908 2.77991Z" fill="#F79E1B"/>
</g>
<defs>
<clipPath id="clip0_8_139">
<rect width="9" height="7" fill="white"/>
</clipPath>
</defs>
</svg>
